<?xml version="1.0" encoding="utf-8"?>
<!-- Generator: Adobe Illustrator 21.0.2, SVG Export Plug-In . SVG Version: 6.00 Build 0)  -->
<svg version="1.1" id="Layer_1" xmlns="http://www.w3.org/2000/svg" xmlns:xlink="http://www.w3.org/1999/xlink" x="0px" y="0px"
	 viewBox="0 0 60 60" style="enable-background:new 0 0 60 60;" xml:space="preserve">
<style type="text/css">
	.st0{fill:#D6F6FB;}
	.st1{fill:#90E7F4;}
	.st2{fill:#FFFFFF;}
</style>
<title>Group 55</title>
<desc>Created with Sketch.</desc>
<g id="SB-WEB-DESIGN">
	<g id="Group-26" transform="translate(-826.000000, 0.000000)">
		<g id="Group-55" transform="translate(826.000000, 0.000000)">
			<circle id="Oval-Copy-2" class="st0" cx="30" cy="30" r="30"/>
			<g id="Page-1" transform="translate(14.000000, 19.000000)">
				<path id="Fill-1" class="st1" d="M32,17L30.7,5.6c-0.2-3.1-2.8-5.6-6-5.6c-1.7,0-3.4,0.7-4.5,2h-8.4c-1.1-1.3-2.7-2-4.5-2
					c-3.1,0-5.8,2.5-6,5.6L0,17c-0.2,1.3,0.2,2.5,1.1,3.5c0.8,0.9,2,1.5,3.3,1.5h2.7l3.4-7.4h10.8l3.4,7.4h2.7
					c1.3,0,2.5-0.5,3.3-1.5C31.7,19.6,32.1,18.3,32,17"/>
				<polygon id="Fill-4" class="st0" points="9,7.4 7.4,7.4 7.4,9 5.6,9 5.6,7.4 4,7.4 4,5.6 5.6,5.6 5.6,4 7.4,4 7.4,5.6 9,5.6 
									"/>
				<polygon id="Fill-6" class="st2" points="14,12 18,12 18,10 14,10 				"/>
				<polygon id="Fill-8" class="st0" points="27,7.4 25.4,7.4 25.4,9 23.6,9 23.6,7.4 22,7.4 22,5.6 23.6,5.6 23.6,4 25.4,4 
					25.4,5.6 23.6,5.6 23.6,7.4 25.4,7.4 25.4,5.6 27,5.6 				"/>
			</g>
		</g>
	</g>
</g>
</svg>
