<svg xmlns="http://www.w3.org/2000/svg" width="19.29" height="18.808" viewBox="0 0 19.29 18.808">
  <path id="Icon_awesome-github" data-name="Icon awesome-github" d="M6.452,15.707c0,.078-.089.14-.2.14-.128.012-.218-.051-.218-.14s.089-.14.2-.14S6.452,15.617,6.452,15.707Zm-1.209-.175c-.027.078.051.167.167.191a.182.182,0,0,0,.241-.078c.023-.078-.051-.167-.167-.2A.2.2,0,0,0,5.242,15.532Zm1.719-.066c-.113.027-.191.1-.179.191s.113.128.229.1.191-.1.179-.179S7.074,15.454,6.961,15.466ZM9.52.562A9.326,9.326,0,0,0,0,10.052a9.75,9.75,0,0,0,6.592,9.3c.5.089.673-.218.673-.471s-.012-1.571-.012-2.388c0,0-2.722.583-3.294-1.159,0,0-.443-1.132-1.081-1.423,0,0-.891-.611.062-.6a2.053,2.053,0,0,1,1.5,1,2.056,2.056,0,0,0,2.835.813A2.162,2.162,0,0,1,7.9,13.82c-2.174-.241-4.367-.556-4.367-4.3a2.947,2.947,0,0,1,.918-2.291,3.675,3.675,0,0,1,.1-2.641c.813-.253,2.683,1.05,2.683,1.05a9.187,9.187,0,0,1,4.885,0s1.871-1.307,2.683-1.05a3.673,3.673,0,0,1,.1,2.641,3.023,3.023,0,0,1,1,2.291c0,3.753-2.291,4.052-4.465,4.3a2.3,2.3,0,0,1,.661,1.8c0,1.311-.012,2.932-.012,3.251,0,.253.179.56.673.471a9.661,9.661,0,0,0,6.526-9.295A9.536,9.536,0,0,0,9.52.562ZM3.78,13.976c-.051.039-.039.128.027.2s.152.089.2.039.039-.128-.027-.2S3.831,13.925,3.78,13.976Zm-.42-.315c-.027.051.012.113.089.152a.116.116,0,0,0,.167-.027c.027-.051-.012-.113-.089-.152C3.45,13.61,3.387,13.622,3.36,13.661Zm1.26,1.385c-.062.051-.039.167.051.241.089.089.2.1.253.039s.027-.167-.051-.241C4.787,14.995,4.671,14.983,4.62,15.046Zm-.443-.572c-.062.039-.062.14,0,.229s.167.128.218.089a.177.177,0,0,0,0-.241C4.34,14.462,4.239,14.423,4.177,14.474Z" transform="translate(0 -0.563)"/>
</svg>
