<?xml version="1.0" encoding="utf-8"?>
<!-- Generator: Adobe Illustrator 21.0.2, SVG Export Plug-In . SVG Version: 6.00 Build 0)  -->
<svg version="1.1" id="Layer_1" xmlns="http://www.w3.org/2000/svg" xmlns:xlink="http://www.w3.org/1999/xlink" x="0px" y="0px"
	 viewBox="0 0 60 60" style="enable-background:new 0 0 60 60;" xml:space="preserve">
<style type="text/css">
	.st0{fill:#FFD8D8;}
	.st1{fill:#FFAFAF;}
	.st2{fill:#FF8080;}
</style>
<title>Group 57</title>
<desc>Created with Sketch.</desc>
<g id="SB-WEB-DESIGN">
	<g id="Group-26" transform="translate(0.000000, -358.000000)">
		<g id="Group-57" transform="translate(0.000000, 358.000000)">
			<circle id="Oval-Copy-4" class="st0" cx="30" cy="30" r="30"/>
			<g id="Page-1" transform="translate(13.000000, 13.000000)">
				<g id="Group-5" transform="translate(0.000000, 0.200012)">
					<path id="Fill-3" class="st1" d="M16.1,12C7.2,12,0,19.7,0,29.2h32.3C32.3,19.7,25,12,16.1,12"/>
					<path id="Fill-1" class="st1" d="M24,7.5c0,4.1-3.4,7.5-7.5,7.5S9,11.6,9,7.5C9,3.4,12.4,0,16.5,0S24,3.4,24,7.5"/>
				</g>
				<path id="Fill-6" class="st2" d="M26.1,29.4c0.9,0,1.6-0.7,1.6-1.6V16.6c0-0.9-0.7-1.6-1.6-1.6H6.9c-0.9,0-1.6,0.7-1.6,1.6v11.1
					c0,0.9,0.7,1.6,1.6,1.6H4C4,30.7,4.6,31,5.2,31h22.5c0.7,0,1.2-0.3,1.2-1.6H26.1z"/>
			</g>
		</g>
	</g>
</g>
</svg>
