<svg xmlns="http://www.w3.org/2000/svg" width="15.778" height="15.778" viewBox="0 0 15.778 15.778">
  <g id="laravel" opacity="0.7">
    <path id="Path_302" data-name="Path 302" d="M134.144,90.985c.123.178.2.164.294.123s5.026-1.705,5.177-1.76.1-.1.055-.178-1.692-2.308-1.774-2.438-.123-.1-.253-.062l-5.227,1.36S134.021,90.807,134.144,90.985Zm5.889-2.273V86.1l-1.625.433C138.851,87.124,139.544,88.052,140.034,88.712Zm-1.63-5.4c-.081.018-1.864.341-1.974.355s-.073.077-.029.139l1.57,2.154s1.919-.476,2.036-.5l.028-.007v-.285c-.349-.442-1.3-1.647-1.381-1.759C138.554,83.273,138.484,83.3,138.4,83.313Z" transform="translate(-124.256 -78.166)" fill="#8696ae"/>
    <path id="Path_303" data-name="Path 303" d="M5.336,1.765c.386-.018.422.07.591.322l4.263,7.127,5.36-1.284c-.3-.421-1.645-2.333-1.776-2.515-.146-.205,0-.3.242-.341s2.289-.385,2.465-.41.315-.088.6.256c.146.176.642.793,1.107,1.372V2.958a2.85,2.85,0,0,0-.868-2.09A2.85,2.85,0,0,0,15.231,0H5.37A2.85,2.85,0,0,0,3.28.868,2.905,2.905,0,0,0,2.57,1.98c.966-.079,2.5-.2,2.766-.216Z" transform="translate(-2.412 0)" fill="#8696ae"/>
    <path id="Path_304" data-name="Path 304" d="M10.372,82.89c-.452.137-.655.2-.949-.206-.221-.308-1.413-2.456-2-3.514-1.107.29-3.132.818-3.716.959a.719.719,0,0,1-.907-.415c-.066-.148-1.737-3.751-2.8-6.062v8.28a2.85,2.85,0,0,0,.868,2.09,2.85,2.85,0,0,0,2.09.868h9.861a2.963,2.963,0,0,0,2.958-2.958v-.973C14.567,81.4,10.677,82.8,10.372,82.89Z" transform="translate(0 -69.111)" fill="#8696ae"/>
    <path id="Path_305" data-name="Path 305" d="M3.765,44.624c.16-.037,3.163-.755,3.227-.769s.105-.05.037-.169l-4-6.908C2.99,36.715,3,36.694,2.9,36.7s-2.314.2-2.829.246a3.146,3.146,0,0,0-.028.329c.523,1.071,3.525,7.263,3.542,7.313s.018.073.178.037Z" transform="translate(-0.041 -34.437)" fill="#8696ae"/>
  </g>
</svg>
