<?xml version="1.0" encoding="UTF-8"?>
<svg width="100px" height="100px" viewBox="0 0 100 100" version="1.1" xmlns="http://www.w3.org/2000/svg" xmlns:xlink="http://www.w3.org/1999/xlink">
    <!-- Generator: Sketch 55.2 (78181) - https://sketchapp.com -->
    <title>Group 13 Copy</title>
    <desc>Created with Sketch.</desc>
    <g id="Page-1" stroke="none" stroke-width="1" fill="none" fill-rule="evenodd">
        <g id="v" transform="translate(-1579.000000, -85.000000)">
            <g id="Group-13-Copy" transform="translate(1579.000000, 84.000000)">
                <polygon id="Fill-1" fill="#CED3DB" points="28.796 67.943 71.205 67.943 71.205 34.057 28.796 34.057"></polygon>
                <polygon id="Fill-2" fill="#2C7FFF" points="31.821 64.885 68.178 64.885 68.178 37.114 31.821 37.114"></polygon>
                <g id="Group-12">
                    <path d="M57.0535,49.7945 L45.8325,64.8855 L68.1785,64.8855 L68.1785,62.4225 L58.7885,49.7945 C58.3105,49.1495 57.5325,49.1495 57.0535,49.7945" id="Fill-3" fill="#0D254C"></path>
                    <path d="M45.5496,46.7271 C44.9816,45.9621 44.0606,45.9621 43.4916,46.7271 L31.8206,62.4221 L31.8206,64.8851 L45.8326,64.8851 L52.4426,55.9971 L45.5496,46.7271 Z" id="Fill-5" fill="#0D254C"></path>
                    <path d="M57.743,39.7222 C59.359,39.7222 60.67,41.0322 60.67,42.6492 C60.67,44.2652 59.359,45.5762 57.743,45.5762 C56.127,45.5762 54.816,44.2652 54.816,42.6492 C54.816,41.0322 56.127,39.7222 57.743,39.7222" id="Fill-7" fill="#FFFFFF"></path>
                    <g id="Group-11"></g>
                    <path d="M52.7713,95.1314 L52.7713,78.3534 L68.4333,78.3534 C69.9633,78.3534 71.2053,77.1114 71.2053,75.5814 C71.2053,74.0514 69.9633,72.8104 68.4333,72.8104 L52.7713,72.8104 L47.2283,72.8104 L31.5673,72.8104 C30.0363,72.8104 28.7953,74.0514 28.7953,75.5814 C28.7953,77.1114 30.0363,78.3534 31.5673,78.3534 L47.2283,78.3534 L47.2283,95.1314 C25.0123,93.7564 7.2443,75.9864 5.8693,53.7724 L18.3843,53.7724 L18.3843,65.1714 C18.3843,66.7014 19.6253,67.9434 21.1563,67.9434 C22.6873,67.9434 23.9273,66.7014 23.9273,65.1714 L23.9273,53.7724 L23.9273,48.2294 L23.9273,36.8284 C23.9273,35.2984 22.6873,34.0574 21.1563,34.0574 C19.6253,34.0574 18.3843,35.2984 18.3843,36.8284 L18.3843,48.2294 L5.8693,48.2294 C7.2443,26.0134 25.0123,8.2434 47.2283,6.8684 L47.2283,23.6474 L31.5673,23.6474 C30.0363,23.6474 28.7953,24.8884 28.7953,26.4184 C28.7953,27.9484 30.0363,29.1904 31.5673,29.1904 L47.2283,29.1904 L52.7713,29.1904 L68.4333,29.1904 C69.9633,29.1904 71.2053,27.9484 71.2053,26.4184 C71.2053,24.8884 69.9633,23.6474 68.4333,23.6474 L52.7713,23.6474 L52.7713,6.8684 C74.9873,8.2434 92.7553,26.0134 94.1303,48.2294 L81.6153,48.2294 L81.6153,36.8284 C81.6153,35.2984 80.3743,34.0574 78.8433,34.0574 C77.3133,34.0574 76.0723,35.2984 76.0723,36.8284 L76.0723,48.2294 L76.0723,53.7724 L76.0723,65.1714 C76.0723,66.7014 77.3133,67.9434 78.8433,67.9434 C80.3743,67.9434 81.6153,66.7014 81.6153,65.1714 L81.6153,53.7724 L94.1303,53.7724 C92.7553,75.9864 74.9873,93.7564 52.7713,95.1314 M50.0003,0.9994 C22.3853,0.9994 0.0003,23.3854 0.0003,50.9994 C0.0003,78.6134 22.3853,100.9994 50.0003,100.9994 C77.6143,100.9994 100.0003,78.6134 100.0003,50.9994 C100.0003,23.3854 77.6143,0.9994 50.0003,0.9994" id="Fill-9" fill="#9EA8B7"></path>
                </g>
            </g>
        </g>
    </g>
</svg>