<svg xmlns="http://www.w3.org/2000/svg" width="18.168" height="18.097" viewBox="0 0 18.168 18.097">
  <g id="nestjs" opacity="0.7">
    <path id="Path_17" data-name="Path 17" d="M10.7,0a1.152,1.152,0,0,0-.366.066,1.033,1.033,0,0,1,.436.61c0,.033.014.056.019.089A.519.519,0,0,1,10.8.849c.019.413-.108.464-.2.708a1,1,0,0,0,.066.924.562.562,0,0,0,.056.1c-.178-1.187.812-1.365.995-1.736a.865.865,0,0,0-.464-.69A1.036,1.036,0,0,0,10.7,0ZM12.19.267A.546.546,0,0,0,12.181.4c0,.038,0,.084-.009.122a1.009,1.009,0,0,1-.033.113A1.052,1.052,0,0,1,12.1.751c-.019.038-.033.07-.052.108-.014.019-.023.038-.038.056l-.028.042c-.023.033-.047.066-.07.094a.714.714,0,0,1-.084.084v0c-.028.023-.056.052-.089.075-.1.075-.211.131-.314.2a.7.7,0,0,0-.094.07.672.672,0,0,0-.089.075.755.755,0,0,0-.084.089.707.707,0,0,0-.07.094c-.023.033-.047.066-.066.1s-.033.07-.052.108a.994.994,0,0,0-.037.108c-.014.042-.023.08-.033.117,0,.019,0,.042-.009.061s0,.038-.009.056c0,.038,0,.08,0,.117a.5.5,0,0,0,0,.084.533.533,0,0,0,.014.117.961.961,0,0,0,.023.113c.014.038.023.075.038.113s.023.047.033.066L9.91,2.487q-.27-.077-.544-.141l-.3-.07c-.282-.056-.568-.1-.854-.127-.009,0-.014,0-.023,0a8.389,8.389,0,0,0-.84-.042c-.206,0-.413.009-.615.023-.286.019-.572.056-.859.1-.07.009-.141.023-.211.038-.145.028-.286.061-.422.094l-.211.056c-.07.028-.136.061-.2.089l-.155.07c-.009,0-.019,0-.023.009-.047.023-.089.042-.131.066a.229.229,0,0,0-.033.014c-.052.023-.1.052-.145.075s-.066.033-.094.047a.423.423,0,0,1-.042.023c-.042.023-.084.047-.122.07a1.176,1.176,0,0,0-.113.07c-.033.023-.066.042-.094.066,0,0-.009,0-.014.009a1.1,1.1,0,0,0-.089.066L3.769,3.1l-.07.056c-.009,0-.019.014-.028.019s-.047.042-.07.061c0,.009-.014.014-.019.019-.028.028-.056.052-.084.08,0,0,0,0-.009.009-.028.023-.056.052-.084.08,0,0,0,.009-.009.009-.023.023-.047.047-.07.075-.009.009-.023.019-.033.028-.023.028-.052.056-.08.084,0,.009-.014.014-.019.023-.037.038-.07.075-.108.113l-.014.014A2.774,2.774,0,0,1,2.83,4a2.667,2.667,0,0,1-.263.206q-.136.1-.281.178a2.859,2.859,0,0,1-.3.141q-.15.064-.305.113a5.246,5.246,0,0,1-.572.136A1,1,0,0,0,1,4.79l-.117.028-.113.042a1.2,1.2,0,0,0-.113.052c-.033.023-.07.042-.1.066a.761.761,0,0,0-.094.08.792.792,0,0,0-.094.084c-.028.033-.056.061-.08.094s-.052.07-.07.108a.841.841,0,0,0-.066.108c-.019.042-.037.08-.052.122S.066,5.655.053,5.7a.963.963,0,0,0-.023.113s0,.009,0,.014c-.009.042-.009.1-.014.127A.638.638,0,0,0,0,6.043a.268.268,0,0,0,0,.061.492.492,0,0,0,.019.089.618.618,0,0,0,.033.084v0a.8.8,0,0,0,.052.084.929.929,0,0,0,.061.084c.023.023.052.052.08.075A.692.692,0,0,0,.339,6.6a1.094,1.094,0,0,0,.286.206c.023.014.047.023.075.038,0,0,.009,0,.014,0a.042.042,0,0,0,0,.023.96.96,0,0,0,.023.113A.629.629,0,0,0,.78,7.1c.014.028.023.056.038.084a.1.1,0,0,0,.014.023c.019.038.038.07.056.1l.07.1c.023.028.052.061.08.089s.056.052.089.08a.017.017,0,0,0,.009,0,1.06,1.06,0,0,0,.084.066.756.756,0,0,0,.1.061.768.768,0,0,0,.108.052.56.56,0,0,0,.094.033s.009,0,.019.009l.061.014a1.866,1.866,0,0,0,.019.577c.042.094.249-.192.455-.521a2.868,2.868,0,0,0,0,.816c.052.117.333-.249.577-.652a5.423,5.423,0,0,1,6.681,4.776.919.919,0,0,0-.971-.718,2.447,2.447,0,0,1-.765,1.07,3.009,3.009,0,0,0-.047-.938,3.034,3.034,0,0,1-.582,1.182A1.311,1.311,0,0,1,5.847,12.9c-.019-.014-.023-.042-.037-.061a.843.843,0,0,1-.038-.1.389.389,0,0,1-.028-.1.728.728,0,0,1,0-.1v-.07a.752.752,0,0,1,.023-.1.814.814,0,0,1,.033-.1,1.062,1.062,0,0,1,.056-.1c.08-.225.08-.408-.066-.516a.534.534,0,0,0-.089-.047c-.019,0-.042-.014-.061-.019L5.6,11.58a.748.748,0,0,0-.1-.023.357.357,0,0,0-.1-.014.769.769,0,0,0-.1-.009c-.023,0-.047,0-.07,0a.367.367,0,0,0-.1.014.727.727,0,0,0-.1.019.81.81,0,0,0-.1.033l-.094.042c-.028.014-.056.033-.089.047-1.093.713-.441,2.383.3,2.867a2.342,2.342,0,0,0-.647.174l-.009.009a4.406,4.406,0,0,0,.633.314c.3.1.619.188.76.225v0a4.539,4.539,0,0,0,1.182.084,4.463,4.463,0,0,0,4.091-3.81c.009.042.019.08.028.122.014.084.033.174.042.263v0c.009.042.014.084.019.122v.019a1.157,1.157,0,0,1,.009.122c0,.052.009.1.009.155v.075c0,.023,0,.052,0,.075s0,.056,0,.084v.066c0,.033,0,.061,0,.094a.285.285,0,0,1,0,.061c0,.033,0,.066,0,.1a.13.13,0,0,0,0,.042c0,.038-.009.07-.014.108a.131.131,0,0,1,0,.042c0,.047-.014.089-.019.136v.009c-.009.042-.019.089-.028.131v.014l-.028.127s0,.014,0,.019a1.247,1.247,0,0,1-.033.127V13.7c-.014.047-.028.089-.037.131a.014.014,0,0,0,0,.009l-.042.141c-.019.047-.033.089-.052.136s-.033.094-.052.136-.038.089-.056.136h0c-.019.042-.038.089-.061.131a.229.229,0,0,1-.014.033s0,.009-.009.014A4.441,4.441,0,0,1,9.366,16.14c-.038.023-.075.052-.113.08-.009.009-.023.014-.033.023-.033.023-.066.047-.1.07l.014.028h0l.2-.028h0c.122-.019.244-.042.366-.066a.815.815,0,0,0,.1-.023l.066-.014c.033,0,.066-.014.1-.019s.056-.014.084-.023a8.9,8.9,0,0,0,1.361-.45A7.514,7.514,0,0,1,8.5,18.1a7.724,7.724,0,0,0,1.6-.277,7.5,7.5,0,0,0,4.434-3.542,7.489,7.489,0,0,1-1.262,3.017,7.373,7.373,0,0,0,3.228-5.03,7.472,7.472,0,0,1,.136,2.262C20.026,9.8,16.92,4.9,15.62,3.613c0-.009-.009-.014-.009-.023s0,0,0,.009,0,0,0-.009c0,.056,0,.113-.009.169-.014.108-.028.211-.047.314s-.052.206-.08.31-.071.2-.113.3-.089.192-.141.286-.108.183-.169.267-.125.172-.192.253-.145.16-.221.235q-.066.061-.136.117l-.108.094a2.622,2.622,0,0,1-.263.183c-.089.056-.183.113-.277.16s-.2.089-.3.131-.2.071-.3.1-.209.051-.314.07-.216.028-.319.038c-.075,0-.15.009-.225.009-.108,0-.216-.009-.319-.019a3.17,3.17,0,0,1-.633-.127h0c.1-.009.207-.019.31-.038s.211-.042.314-.07.2-.061.3-.1a2.824,2.824,0,0,0,.3-.131c.1-.047.188-.1.281-.155s.178-.122.263-.188a2.566,2.566,0,0,0,.239-.211,2.548,2.548,0,0,0,.221-.23q.1-.123.2-.253c.009-.014.019-.033.028-.047.047-.075.094-.15.136-.225q.077-.14.141-.286t.113-.3c.033-.1.056-.2.08-.305s.038-.211.047-.314.019-.216.019-.319c0-.075,0-.15-.009-.225-.009-.108-.023-.211-.038-.314s-.042-.211-.07-.314-.066-.2-.1-.3-.084-.2-.131-.291-.1-.188-.16-.277-.123-.174-.188-.258-.143-.161-.216-.239q-.059-.06-.122-.117-.315-.245-.652-.46a.874.874,0,0,0-.094-.047,1.825,1.825,0,0,0-.446-.2Z" transform="translate(-0.001)" fill="#8696ae"/>
  </g>
</svg>
