<?xml version="1.0" encoding="utf-8"?>
<!-- Generator: Adobe Illustrator 21.0.2, SVG Export Plug-In . SVG Version: 6.00 Build 0)  -->
<svg version="1.1" id="Layer_1" xmlns="http://www.w3.org/2000/svg" xmlns:xlink="http://www.w3.org/1999/xlink" x="0px" y="0px"
	 viewBox="0 0 60 60" style="enable-background:new 0 0 60 60;" xml:space="preserve">
<style type="text/css">
	.st0{fill:#FFECC9;}
	.st1{fill:#FFFDF8;}
	.st2{filter:url(#Adobe_OpacityMaskFilter);}
	.st3{fill:#FFFFFF;}
	.st4{mask:url(#mask-2);fill:#FFFDF8;}
	.st5{fill:#FFD17D;}
	.st6{filter:url(#Adobe_OpacityMaskFilter_1_);}
	.st7{mask:url(#mask-4);fill:#FFFDF8;}
	.st8{fill:#FFC354;}
</style>
<title>Group 54</title>
<desc>Created with Sketch.</desc>
<g id="SB-WEB-DESIGN">
	<g id="Group-26" transform="translate(-415.000000, 0.000000)">
		<g id="Group-54" transform="translate(415.000000, 0.000000)">
			<circle id="Oval-Copy" class="st0" cx="30" cy="30" r="30"/>
			
				<g id="Page-1" transform="translate(19.593926, 32.253780) rotate(8.000000) translate(-19.593926, -32.253780) translate(13.093926, 16.753780)">
				<polygon id="Fill-1" class="st1" points="5.3,16 5.3,28.3 1.5,28.3 1.5,31 11.5,31 11.5,28.3 7.7,28.3 7.7,16 				"/>
				<g id="Group-7">
					<g id="Group-4">
						<g id="Clip-3">
						</g>
						<defs>
							<filter id="Adobe_OpacityMaskFilter" filterUnits="userSpaceOnUse" x="0.3" y="-1.7" width="12.3" height="11.7">
								<feColorMatrix  type="matrix" values="1 0 0 0 0  0 1 0 0 0  0 0 1 0 0  0 0 0 1 0"/>
							</filter>
						</defs>
						<mask maskUnits="userSpaceOnUse" x="0.3" y="-1.7" width="12.3" height="11.7" id="mask-2">
							<g class="st2">
								<polygon id="path-1" class="st3" points="0,8.4 0,0 12.9,0 12.9,8.4 								"/>
							</g>
						</mask>
						<path id="Fill-2" class="st4" d="M10.4,8.4c1,0,1.8-0.3,2.4-0.6l0-7.8L0,0l0,7.7c0.6-0.3,1.5-0.6,2.5-0.5
							C5.4,7.2,7.6,8.5,10.4,8.4"/>
					</g>
					<path id="Fill-5" class="st5" d="M6.4,19c3.6,0,6.4-2.8,6.4-6.3V7.9c-0.6,0.3-1.4,0.5-2.4,0.6c-2.9,0.1-5-1.2-7.9-1.3
						C1.5,7.2,0.6,7.4,0,7.7l0,4.9C0,16.1,2.9,19,6.4,19"/>
				</g>
			</g>
			
				<g id="Page-1_1_" transform="translate(37.593926, 36.253780) scale(-1, 1) rotate(8.000000) translate(-37.593926, -36.253780) translate(31.093926, 20.753780)">
				<polygon id="Fill-1_1_" class="st1" points="5.3,16 5.3,28.3 1.5,28.3 1.5,31 11.5,31 11.5,28.3 7.7,28.3 7.7,16 				"/>
				<g id="Group-7_1_">
					<g id="Group-4_1_">
						<g id="Clip-3_1_">
						</g>
						<defs>
							<filter id="Adobe_OpacityMaskFilter_1_" filterUnits="userSpaceOnUse">
								<feColorMatrix  type="matrix" values="1 0 0 0 0  0 1 0 0 0  0 0 1 0 0  0 0 0 1 0"/>
							</filter>
						</defs>
						<mask maskUnits="userSpaceOnUse" id="mask-4">
							<g class="st6">
								<polygon id="path-3" class="st3" points="0,8.4 0,0 12.9,0 12.9,8.4 								"/>
							</g>
						</mask>
						<path id="Fill-2_1_" class="st7" d="M10.4,8.4c1,0,1.8-0.3,2.4-0.6l0-7.8L0,0l0,7.7c0.6-0.3,1.5-0.6,2.5-0.5
							C5.4,7.2,7.6,8.5,10.4,8.4"/>
					</g>
					<path id="Fill-5_1_" class="st5" d="M6.4,19c3.6,0,6.4-2.8,6.4-6.3V7.9c-0.6,0.3-1.4,0.5-2.4,0.6c-2.9,0.1-5-1.2-7.9-1.3
						C1.5,7.2,0.6,7.4,0,7.7l0,4.9C0,16.1,2.9,19,6.4,19"/>
				</g>
			</g>
			<polygon id="Page-1_2_" class="st8" points="31.5,8 31,10 29,10.5 31,11 31.5,13 32,11 34,10.5 32,10 			"/>
			<polygon id="Page-1-Copy" class="st8" points="50.5,20 50,22 48,22.5 50,23 50.5,25 51,23 53,22.5 51,22 			"/>
			<polygon id="Page-1-Copy-2" class="st8" points="9.5,26 9,28 7,28.5 9,29 9.5,31 10,29 12,28.5 10,28 			"/>
		</g>
	</g>
</g>
</svg>
