<?xml version="1.0" encoding="utf-8"?>
<!-- Generator: Adobe Illustrator 21.0.2, SVG Export Plug-In . SVG Version: 6.00 Build 0)  -->
<svg version="1.1" id="Layer_1" xmlns="http://www.w3.org/2000/svg" xmlns:xlink="http://www.w3.org/1999/xlink" x="0px" y="0px"
	 viewBox="0 0 60 60" style="enable-background:new 0 0 60 60;" xml:space="preserve">
<style type="text/css">
	.st0{fill:#FAE1FA;}
	.st1{fill:#FFFFFF;}
	.st2{fill:#EF9FEF;}
</style>
<title>Group 58</title>
<desc>Created with Sketch.</desc>
<g id="SB-WEB-DESIGN">
	<g id="Group-26" transform="translate(-829.000000, -357.000000)">
		<g id="Group-58" transform="translate(829.000000, 357.000000)">
			<circle id="Oval-Copy-5" class="st0" cx="30" cy="30" r="30"/>
			<g id="Page-1" transform="translate(19.000000, 16.000000)">
				<g id="Group-16">
					<polygon id="Fill-1" class="st1" points="16.6,19.9 5.4,19.9 3.9,22 18.1,22 					"/>
					<path id="Fill-2" class="st2" d="M15.3,19.9H7c1.7-0.7,2.8-2.9,2.8-5.5v-1.2h2.7v1.2C12.5,16.9,13.6,19.2,15.3,19.9z"/>
					<path id="Fill-6" class="st2" d="M1.5,3.5c0.9,5.5,5,9.6,9.9,9.6c4.9,0,9.1-4.1,9.9-9.6H1.5z M11.5,14.5
						C6.2,14.5,0.8,10.4,0,2.1h22.9C22.1,10.4,16.7,14.5,11.5,14.5z"/>
					<path id="Fill-9" class="st1" d="M3.5,0c0,9.2,3.5,16.6,7.7,16.6S18.9,9.2,19,0H3.5"/>
					<polygon id="Fill-12" class="st2" points="2.5,28 19.6,28 19.6,22 2.5,22 					"/>
					<path id="Fill-14" class="st2" d="M11.2,2.5c2.6,0,4.7,2.1,4.7,4.7c0,2.6-2.1,4.7-4.7,4.7c-2.6,0-4.7-2.1-4.7-4.7
						C6.5,4.6,8.6,2.5,11.2,2.5"/>
					<polygon id="Fill-15" class="st1" points="11.1,3.5 12.2,5.7 14.6,6.1 12.9,7.8 13.3,10.3 11.1,9.1 8.9,10.3 9.3,7.8 7.5,6.1 
						10,5.7 					"/>
				</g>
			</g>
		</g>
	</g>
</g>
</svg>
