<?xml version="1.0" encoding="UTF-8"?>
<svg width="71px" height="64px" viewBox="0 0 71 64" version="1.1" xmlns="http://www.w3.org/2000/svg" xmlns:xlink="http://www.w3.org/1999/xlink">
    <!-- Generator: Sketch 50.2 (55047) - http://www.bohemiancoding.com/sketch -->
    <title>pvr</title>
    <desc>Created with Sketch.</desc>
    <defs></defs>
    <g id="Final-Designs" stroke="none" stroke-width="1" fill="none" fill-rule="evenodd">
        <g id="Home-page-final" transform="translate(-924.000000, -2619.000000)" fill="#FDCB00" fill-rule="nonzero">
            <g id="client-logos" transform="translate(170.000000, 2606.000000)">
                <g id="Group-36">
                    <g id="Group-54" transform="translate(7.194506, 12.585366)">
                        <g id="pvr" transform="translate(746.815464, 0.000000)">
                            <g id="Group" transform="translate(0.290385, 0.202309)">
                                <g transform="translate(0.000000, 55.230299)" id="Shape">
                                    <path d="M6.38318857,2.12688109 C6.14296104,1.88674935 5.79977886,1.61231308 5.38796024,1.44079042 C4.97614163,1.26926775 4.53000479,1.13204961 4.08386796,1.13204961 C2.33363883,1.13204961 1.06386476,2.53853549 1.06386476,4.28806671 C1.06386476,6.34633874 2.74545745,7.37547475 4.11818617,7.37547475 C4.63295945,7.37547475 5.1134145,7.23825661 5.52523312,7.03242941 C5.97136995,6.82660221 6.2459157,6.5178614 6.38318857,6.4149478 L6.38318857,7.44408381 C5.55955134,8.02726089 4.66727766,8.16447902 4.11818617,8.16447902 C1.887502,8.16447902 0.205909309,6.48355687 0.205909309,4.28806671 C0.205909309,2.02396749 1.887502,0.377349871 4.15250439,0.377349871 C4.59864123,0.377349871 5.4909149,0.445958938 6.38318857,1.13204961 L6.38318857,2.12688109 Z"></path>
                                    <polygon points="13.0409229 0.445958938 13.0409229 7.99295635 12.2172856 7.99295635 12.2172856 0.445958938"></polygon>
                                    <polygon points="19.0809293 7.99295635 19.0809293 0.137218135 24.9836628 6.3120342 24.9836628 0.445958938 25.8073 0.445958938 25.8073 8.33600169 19.9045665 2.16118562 19.9045665 7.99295635"></polygon>
                                    <polygon points="35.5193558 1.23496321 32.4307161 1.23496321 32.4307161 3.4647579 35.4164011 3.4647579 35.4164011 4.25376218 32.4307161 4.25376218 32.4307161 7.16964754 35.5193558 7.16964754 35.5193558 7.95865182 31.6070789 7.95865182 31.6070789 0.411654404 35.5193558 0.411654404"></polygon>
                                    <polygon points="40.8729978 7.99295635 42.1427718 0.0343045337 45.0255022 6.4149478 47.9768689 0.0343045337 49.1436883 8.02726089 48.2857329 8.02726089 47.5650503 2.77866723 44.991184 8.33600169 42.4516358 2.77866723 41.696635 8.02726089 40.8729978 8.02726089"></polygon>
                                    <path d="M58.4782437,5.86607526 L55.2523312,5.86607526 L54.3600575,7.99295635 L53.4334656,7.99295635 L56.8996056,0.0686090674 L60.2971092,7.99295635 L59.3705173,7.99295635 L58.4782437,5.86607526 Z M58.1350615,5.07707099 L56.8652874,2.05827202 L55.5611951,5.07707099 L58.1350615,5.07707099 Z"></path>
                                    <path d="M68.6707545,1.95535842 C68.5677998,1.74953122 68.3962087,1.50939948 68.2246176,1.40648588 C68.0873447,1.30357228 67.812799,1.13204961 67.3666622,1.13204961 C66.6116614,1.13204961 66.0968881,1.61231308 66.0968881,2.29840376 C66.0968881,2.60714456 66.1655245,2.77866723 66.3714338,2.9501899 C66.6116614,3.19032163 66.8862071,3.29323524 67.1607529,3.43045337 L67.8814354,3.73919417 C68.3275723,3.94502138 68.7393909,4.15084858 69.0482549,4.45958938 C69.4257553,4.83693925 69.5973463,5.28289819 69.5973463,5.83177073 C69.5973463,7.23825661 68.5677998,8.16447902 67.1950711,8.16447902 C66.6802978,8.16447902 66.0625699,8.06156542 65.5477966,7.54699742 C65.1702962,7.16964754 64.9643869,6.65507954 64.8614322,6.2091206 L65.6850695,5.96898887 C65.7537059,6.38064327 65.925297,6.68938407 66.1312063,6.92951581 C66.4743885,7.27256115 66.8175707,7.34117021 67.2293893,7.34117021 C68.2589358,7.34117021 68.7393909,6.62077501 68.7393909,5.83177073 C68.7393909,5.48872539 68.6364362,5.21428912 68.3618905,4.93985285 C68.1559812,4.73402565 67.8471172,4.59680752 67.4696168,4.42528485 L66.7832525,4.11654404 C66.4743885,3.97932591 66.1312063,3.80780324 65.7880241,3.49906244 C65.4448419,3.19032163 65.2732509,2.8472763 65.2732509,2.26409922 C65.2732509,1.09774508 66.1655245,0.308740803 67.4009804,0.308740803 C67.8814354,0.308740803 68.2246176,0.411654404 68.602118,0.65178614 C68.910982,0.857613343 69.1855277,1.16635415 69.3228006,1.47509495 L68.6707545,1.95535842 Z"></path>
                                </g>
                                <polygon id="Shape" points="25.8759365 0.240131736 33.8377631 35.1964516 41.5936804 0.240131736 47.7023232 0.240131736 33.8377631 51.9027595 19.9732029 0.240131736"></polygon>
                                <path d="M19.5613843,8.64474249 C16.7816087,6.07190247 14.5852427,5.66024806 11.6681942,5.66024806 L1.02954654,5.66024806 L1.02954654,46.9972112 L5.79977886,46.9972112 L5.79977886,30.2909033 L14.4479698,30.2909033 C20.8311584,30.2909033 23.3363883,22.7782104 23.3363883,17.5296167 C23.3363883,14.9224722 22.4441146,11.3204961 19.5613843,8.64474249 Z M11.5995577,25.6597912 L5.79977886,25.6597912 L5.79977886,10.3942737 L11.1534209,10.3942737 C15.2372888,10.3942737 18.8407017,12.212414 18.8407017,18.4558391 C18.8407017,23.91026 15.7863803,25.6597912 11.5995577,25.6597912 Z" id="Shape"></path>
                                <path d="M60.4687003,30.2565987 C66.5773431,29.9821625 68.9796184,22.6409922 68.9796184,17.5296167 C68.9796184,14.9224722 68.0873447,11.3204961 65.2046144,8.64474249 C62.4248388,6.07190247 60.2284728,5.66024806 57.3114243,5.66024806 L46.6727766,5.66024806 L46.6727766,46.9629066 L51.4773272,46.9629066 L51.4773272,30.2565987 L55.2523312,30.2565987 L65.5477966,46.9629066 L70.5239382,46.9629066 L60.4687003,30.2565987 Z M51.4773272,25.6597912 L51.4773272,10.3942737 L56.8309692,10.3942737 C60.9491554,10.3942737 64.5182501,12.212414 64.5182501,18.4558391 C64.5182501,23.91026 61.4639286,25.6597912 57.277106,25.6597912 L51.4773272,25.6597912 Z" id="Shape"></path>
                            </g>
                        </g>
                    </g>
                </g>
            </g>
        </g>
    </g>
</svg>