<?xml version="1.0" encoding="UTF-8"?>
<svg width="100px" height="78px" viewBox="0 0 100 78" version="1.1" xmlns="http://www.w3.org/2000/svg" xmlns:xlink="http://www.w3.org/1999/xlink">
    <!-- Generator: Sketch 55.2 (78181) - https://sketchapp.com -->
    <title>Group 43 Copy 2</title>
    <desc>Created with Sketch.</desc>
    <defs>
        <polygon id="path-1" points="0.2625 0.2653167 40 0.2653167 40 39.9997288 0.2625 39.9997288"></polygon>
        <polygon id="path-3" points="0 0.261187708 39.7298 0.261187708 39.7298 39.9813041 0 39.9813041"></polygon>
    </defs>
    <g id="Page-1" stroke="none" stroke-width="1" fill="none" fill-rule="evenodd">
        <g id="v" transform="translate(-451.000000, -95.000000)">
            <g id="Group-43-Copy-2" transform="translate(451.000000, 95.000000)">
                <g id="Group-3" transform="translate(60.000000, 37.232500)">
                    <mask id="mask-2" fill="white">
                        <use xlink:href="#path-1"></use>
                    </mask>
                    <g id="Clip-2"></g>
                    <path d="M39.3455,15.0902 C42.1285,25.7032 35.7805,36.5632 25.1675,39.3452 C14.5535,42.1282 3.6945,35.7802 0.9115,25.1672 C0.4805,23.5232 0.2625,21.8292 0.2625,20.1302 C0.2625,19.9582 0.2645,19.7882 0.2685,19.6162 C0.5535,8.6482 9.6775,-0.0138 20.6455,0.2722 C28.0605,0.4642 34.7505,4.7712 37.9955,11.4412 L39.3455,15.0902 Z" id="Fill-1" fill="#103367" mask="url(#mask-2)"></path>
                </g>
                <path d="M86.3773,17.2983 L97.9953,48.6733 C93.1953,38.8073 81.3053,34.6993 71.4383,39.4993 C64.7683,42.7443 60.4613,49.4343 60.2693,56.8493 L60.2623,56.8493 L60.3283,46.4343 L60.3783,38.3633 L60.4843,21.7653 L60.4863,21.3163 C60.4863,18.7773 61.2313,16.2963 62.6293,14.1783 C63.1453,13.3973 63.7403,12.6703 64.4063,12.0123 C69.6083,6.8463 78.0143,6.8743 83.1813,12.0773 C84.6393,13.5453 85.7333,15.3323 86.3773,17.2983" id="Fill-4" fill="#5598FF"></path>
                <path d="M80.1268,6.1382 L80.6868,10.1062 C75.4708,6.9042 68.7408,7.6922 64.4058,12.0122 C63.7398,12.6702 63.1448,13.3972 62.6298,14.1782 L62.6068,14.1622 L62.4948,8.9272 C62.5508,6.5532 63.5258,4.2922 65.2148,2.6222 C68.7518,-0.8908 74.4658,-0.8718 77.9798,2.6642 C78.9508,3.6432 79.6858,4.8312 80.1268,6.1382" id="Fill-6" fill="#103367"></path>
                <polygon id="Fill-8" fill="#1F59B2" points="60.4842 21.7651 60.3792 38.3641 60.2622 38.3641 39.6172 38.3641 39.6152 38.3641 39.5072 21.7631 39.6172 21.7631 60.2622 21.7631"></polygon>
                <polygon id="Fill-10" fill="#103367" points="60.3787 38.3638 60.3287 46.4338 60.2617 46.4338 39.6657 46.4338 39.6157 38.3638 39.6177 38.3638 60.2617 38.3638"></polygon>
                <path d="M39.6658,46.4341 L39.7298,56.4051 L39.7068,56.4051 C39.1758,45.4451 29.8608,36.9901 18.9008,37.5211 C11.6518,37.8721 5.1718,42.1481 1.9968,48.6731 L13.6148,17.2981 C15.8888,10.3321 23.3778,6.5301 30.3428,8.8031 C32.3178,9.4481 34.1138,10.5471 35.5858,12.0121 C36.2598,12.6781 36.8618,13.4131 37.3808,14.2061 C38.7668,16.3181 39.5058,18.7891 39.5048,21.3161 L39.5078,21.7631 L39.6158,38.3641 L39.6658,46.4341 Z" id="Fill-12" fill="#5598FF"></path>
                <g id="Group-16" transform="translate(0.000000, 37.232500)">
                    <mask id="mask-4" fill="white">
                        <use xlink:href="#path-3"></use>
                    </mask>
                    <g id="Clip-15"></g>
                    <path d="M39.7068,19.1723 C39.7228,19.4883 39.7298,19.8093 39.7298,20.1303 C39.7218,31.1013 30.8218,39.9883 19.8508,39.9813041 C8.8798,39.9743 -0.0082,31.0733 -0.000205396303,20.1023 C0.0008,18.4103 0.2188,16.7263 0.6458,15.0903 L1.9968,11.4413 C6.7968,1.5743 18.6878,-2.5327 28.5548,2.2683 C35.0808,5.4433 39.3558,11.9233 39.7068,19.1723" id="Fill-14" fill="#103367" mask="url(#mask-4)"></path>
                </g>
                <path d="M37.4974,9.0395 L37.3854,14.2035 L37.3804,14.2065 C34.9154,10.4415 30.7254,8.1655 26.2254,8.1475 C23.7904,8.1495 21.4034,8.8235 19.3264,10.0945 L19.3064,10.0575 L19.8654,6.2505 C21.4594,1.5275 26.5804,-1.0085 31.3034,0.5865 C32.6104,1.0275 33.7984,1.7635 34.7764,2.7345 C36.4654,4.4045 37.4404,6.6655 37.4974,9.0395" id="Fill-17" fill="#103367"></path>
                <path d="M95.5853,57.1352 C95.7113,65.6702 88.8953,72.6922 80.3593,72.8192 C71.8253,72.9462 64.8033,66.1282 64.6773,57.5942 C64.5503,49.0592 71.3663,42.0372 79.9013,41.9102 C88.4373,41.7832 95.4583,48.6012 95.5853,57.1352" id="Fill-19" fill="#F4F9FF"></path>
                <path d="M79.6902,51.1235 C74.0492,51.2645 69.6382,56.2345 69.8372,62.2265 C70.0352,68.2165 74.7692,72.9585 80.4082,72.8175 C86.0482,72.6765 90.4612,67.7055 90.2622,61.7155 C90.0642,55.7245 85.3312,50.9815 79.6902,51.1235" id="Fill-21" fill="#94BFFF"></path>
                <path d="M70.9998,64.0513 C71.7528,68.8343 75.7318,72.4453 80.4128,72.3273 C85.3398,72.2043 89.2158,67.9943 89.2988,62.8223 C84.1948,66.6493 76.6148,68.2823 70.9998,64.0513" id="Fill-23" fill="#2C7FFF"></path>
                <path d="M80.0613,54.8589 C76.0993,54.9589 72.9993,58.4499 73.1393,62.6589 C73.2783,66.8669 76.6033,70.1989 80.5663,70.0989 C84.5283,69.9999 87.6273,66.5079 87.4883,62.2989 C87.3493,58.0899 84.0233,54.7589 80.0613,54.8589" id="Fill-25" fill="#0D254C"></path>
                <path d="M75.1782602,56.2795462 C74.0766192,56.3495344 73.2508932,57.128826 73.3329947,58.0184835 C73.4157692,58.9074681 74.3754149,59.5723559 75.4770559,59.5016948 C76.578697,59.4317066 77.404423,58.652415 77.3216485,57.7627575 C77.239547,56.8730999 76.2792283,56.209558 75.1782602,56.2795462" id="Fill-27" fill="#FFFFFF"></path>
                <path d="M85.6766,63.7759 C85.0066,63.8189 84.5046,64.2919 84.5546,64.8329 C84.6056,65.3739 85.1886,65.7769 85.8586,65.7339 C86.5276,65.6919 87.0306,65.2179 86.9796,64.6769 C86.9296,64.1359 86.3456,63.7329 85.6766,63.7759" id="Fill-29" fill="#FFFFFF"></path>
                <path d="M35.3192,57.1245 C35.4452,65.6595 28.6292,72.6815 20.0942,72.8075 C11.5592,72.9345 4.5372,66.1175 4.4112,57.5825 C4.2842,49.0475 11.1002,42.0255 19.6352,41.8995 C28.1712,41.7725 35.1922,48.5895 35.3192,57.1245" id="Fill-31" fill="#F4F9FF"></path>
                <path d="M19.4241,51.1118 C13.7841,51.2538 9.3721,56.2238 9.5711,62.2148 C9.7691,68.2058 14.5031,72.9478 20.1431,72.8058 C25.7821,72.6658 30.1951,67.6938 29.9961,61.7038 C29.7981,55.7128 25.0651,50.9708 19.4241,51.1118" id="Fill-33" fill="#94BFFF"></path>
                <path d="M10.7337,64.0395 C11.4877,68.8225 15.4657,72.4335 20.1467,72.3155 C25.0737,72.1925 28.9497,67.9825 29.0337,62.8105 C23.9287,66.6385 16.3487,68.2715 10.7337,64.0395" id="Fill-35" fill="#2C7FFF"></path>
                <path d="M19.7952,54.8472 C15.8332,54.9472 12.7332,58.4382 12.8732,62.6472 C13.0122,66.8552 16.3372,70.1872 20.3002,70.0872 C24.2622,69.9892 27.3612,66.4962 27.2222,62.2872 C27.0832,58.0792 23.7572,54.7482 19.7952,54.8472" id="Fill-37" fill="#0D254C"></path>
                <path d="M14.9121602,56.2677485 C13.8105192,56.3384096 12.9847932,57.1170282 13.0668947,58.0066858 C13.1503421,58.8963433 14.1093149,59.5605582 15.2109559,59.489897 C16.312597,59.4199088 17.138323,58.6406173 17.0555485,57.7516327 C16.973447,56.8619751 16.0131283,56.1977603 14.9121602,56.2677485" id="Fill-39" fill="#FFFFFF"></path>
                <path d="M25.4105,63.7641 C24.7415,63.8071 24.2385,64.2801 24.2885,64.8211 C24.3395,65.3621 24.9225,65.7651 25.5925,65.7221 C26.2615,65.6801 26.7645,65.2061 26.7135,64.6651 C26.6635,64.1251 26.0805,63.7211 25.4105,63.7641" id="Fill-41" fill="#FFFFFF"></path>
            </g>
        </g>
    </g>
</svg>