<?xml version="1.0" encoding="utf-8"?>
<!-- Generator: Adobe Illustrator 21.0.2, SVG Export Plug-In . SVG Version: 6.00 Build 0)  -->
<svg version="1.1" id="Layer_1" xmlns="http://www.w3.org/2000/svg" xmlns:xlink="http://www.w3.org/1999/xlink" x="0px" y="0px"
	 viewBox="0 0 60 60" style="enable-background:new 0 0 60 60;" xml:space="preserve">
<style type="text/css">
	.st0{fill:#DBF7DC;}
	.st1{fill:#8DD690;}
	.st2{fill:#FFF9C5;}
	.st3{fill:#B1EEB3;}
	.st4{filter:url(#Adobe_OpacityMaskFilter);}
	.st5{fill:#FFFFFF;}
	.st6{mask:url(#mask-2);fill:#B1EEB3;}
	.st7{filter:url(#Adobe_OpacityMaskFilter_1_);}
	.st8{mask:url(#mask-4);fill:#8DD690;}
	.st9{fill:#E3FFE4;}
	.st10{fill:#9CEA9E;}
</style>
<title>Group 56</title>
<desc>Created with Sketch.</desc>
<g id="SB-WEB-DESIGN">
	<g id="Group-26" transform="translate(-415.000000, -357.000000)">
		<g id="Group-56" transform="translate(415.000000, 357.000000)">
			<circle id="Oval" class="st0" cx="30" cy="30" r="30"/>
			<g id="Page-1" transform="translate(12.000000, 14.000000)">
				<path id="Fill-1" class="st1" d="M17.1,30.9l5.1-16c0.3-0.8,1.1-1.2,1.9-1c0.8,0.3,1.2,1.1,1,1.9l-5,15.7L17.1,30.9z"/>
				<path id="Fill-3" class="st2" d="M16.2,17C16.2,17,16.2,17,16.2,17L16.2,17L16.2,17z"/>
				<path id="Fill-5" class="st3" d="M26.3,7.1l-5.5,1l-3.3,4.4l0.4,5.2l0,0c0,0,0,0,0,0c1.5-0.4,3.3-0.4,5,0.2
					c1.7,0.5,3.1,1.5,4.1,2.7l0,0l2.7-3.1l-0.2-7.2L26.3,7.1z"/>
				<g id="Group-9" transform="translate(0.000000, 25.816300)">
					<g id="Clip-8">
					</g>
					<defs>
						<filter id="Adobe_OpacityMaskFilter" filterUnits="userSpaceOnUse" x="0" y="0.8" width="34.9" height="6.2">
							<feColorMatrix  type="matrix" values="1 0 0 0 0  0 1 0 0 0  0 0 1 0 0  0 0 0 1 0"/>
						</filter>
					</defs>
					<mask maskUnits="userSpaceOnUse" x="0" y="0.8" width="34.9" height="6.2" id="mask-2">
						<g class="st4">
							<polygon id="path-1" class="st5" points="0,0.8 0,7 34.9,7 34.9,0.8 							"/>
						</g>
					</mask>
					<path id="Fill-7" class="st6" d="M34.9,7c-2.4-3.1-10.1-6.2-17.7-6.2C8.4,0.8,2.4,4.3,0,7H34.9z"/>
				</g>
				<path id="Fill-10" class="st1" d="M17.9,17.7c-1-1.2-2.5-2.2-4.2-2.7c-1.7-0.5-3.5-0.6-5-0.2c0,0,6.8-11.2,17.6-7.7
					C26.3,7.1,20.9,8.9,17.9,17.7L17.9,17.7z"/>
				<g id="Group-14" transform="translate(26.000000, 6.816300)">
					<g id="Clip-13">
					</g>
					<defs>
						<filter id="Adobe_OpacityMaskFilter_1_" filterUnits="userSpaceOnUse" x="0.3" y="0.2" width="9.9" height="16.5">
							<feColorMatrix  type="matrix" values="1 0 0 0 0  0 1 0 0 0  0 0 1 0 0  0 0 0 1 0"/>
						</filter>
					</defs>
					<mask maskUnits="userSpaceOnUse" x="0.3" y="0.2" width="9.9" height="16.5" id="mask-4">
						<g class="st7">
							<polygon id="path-3" class="st5" points="10.2,16.7 10.2,0.2 0.3,0.2 0.3,16.7 							"/>
						</g>
					</mask>
					<path id="Fill-12" class="st8" d="M1,13.8c1.5-0.4,3.3-0.4,5,0.2c1.7,0.5,3.2,1.5,4.2,2.7c0,0,0.9-13-9.9-16.5
						C0.3,0.2,3.6,4.9,1,13.8L1,13.8z"/>
				</g>
				<path id="Fill-15" class="st5" d="M7.7,2.8c1.4,0,2.5,1.1,2.5,2.5c0,1.4-1.1,2.5-2.5,2.5S5.2,6.7,5.2,5.3
					C5.2,3.9,6.3,2.8,7.7,2.8"/>
				<path id="Fill-17" class="st1" d="M10,21.8c2.1,0,3.8,1.7,3.8,3.8s-1.7,3.8-3.8,3.8s-3.8-1.7-3.8-3.8S7.9,21.8,10,21.8"/>
				<path id="Fill-19" class="st9" d="M12.5,22.7c0.6,0.6,0,2.3-1.4,3.9S8.1,29,7.5,28.4c-0.6-0.6,0-2.3,1.4-3.9
					C10.2,23,11.9,22.2,12.5,22.7"/>
				<path id="Fill-21" class="st10" d="M7.7,1.9c-0.3,0-0.5-0.2-0.5-0.5V0.5C7.3,0.2,7.5,0,7.7,0C8,0,8.2,0.2,8.2,0.5v0.9
					C8.2,1.7,8,1.9,7.7,1.9"/>
				<path id="Fill-23" class="st10" d="M10.5,3c-0.1,0-0.2,0-0.3-0.1c-0.2-0.2-0.2-0.5,0-0.7l0.7-0.7c0.2-0.2,0.5-0.2,0.7,0
					s0.2,0.5,0,0.7l-0.7,0.7C10.7,3,10.6,3,10.5,3"/>
				<path id="Fill-25" class="st10" d="M12.5,5.7h-0.9c-0.3,0-0.5-0.2-0.5-0.5c0-0.3,0.2-0.5,0.5-0.5h0.9C12.8,4.8,13,5,13,5.3
					C13,5.5,12.8,5.7,12.5,5.7"/>
				<path id="Fill-27" class="st10" d="M11.1,9.1c-0.1,0-0.2,0-0.3-0.1l-0.7-0.7c-0.2-0.2-0.2-0.5,0-0.7c0.2-0.2,0.5-0.2,0.7,0
					l0.7,0.7c0.2,0.2,0.2,0.5,0,0.7C11.4,9.1,11.2,9.1,11.1,9.1"/>
				<path id="Fill-29" class="st10" d="M7.7,10.6c-0.3,0-0.5-0.2-0.5-0.5V9.2c0-0.3,0.2-0.5,0.5-0.5c0.3,0,0.5,0.2,0.5,0.5v0.9
					C8.2,10.3,8,10.6,7.7,10.6"/>
				<path id="Fill-31" class="st10" d="M4.3,9.1C4.2,9.1,4.1,9.1,4,9C3.8,8.8,3.8,8.5,4,8.4l0.7-0.7c0.2-0.2,0.5-0.2,0.7,0
					c0.2,0.2,0.2,0.5,0,0.7L4.6,9C4.5,9.1,4.4,9.1,4.3,9.1"/>
				<path id="Fill-33" class="st10" d="M3.8,5.7H2.9c-0.3,0-0.5-0.2-0.5-0.5c0-0.3,0.2-0.5,0.5-0.5h0.9c0.3,0,0.5,0.2,0.5,0.5
					C4.3,5.5,4.1,5.7,3.8,5.7"/>
				<path id="Fill-35" class="st10" d="M5,3C4.9,3,4.7,3,4.6,2.9L4,2.2C3.8,2,3.8,1.7,4,1.5c0.2-0.2,0.5-0.2,0.7,0l0.7,0.7
					c0.2,0.2,0.2,0.5,0,0.7C5.2,3,5.1,3,5,3"/>
			</g>
		</g>
	</g>
</g>
</svg>
